<svg width="502" height="210" viewBox="0 0 502 210" fill="none" xmlns="http://www.w3.org/2000/svg">
<g clip-path="url(#clip0_7_8172)">
<path d="M22.3035 173.246H498.023" stroke="black"/>
<path d="M22.3035 179.546V173.246" stroke="black"/>
<path d="M22.3032 191.662C21.6611 191.662 21.1142 191.488 20.6625 191.138C20.2108 190.786 19.8657 190.276 19.627 189.608C19.3884 188.938 19.2691 188.128 19.2691 187.179C19.2691 186.236 19.3884 185.431 19.627 184.763C19.8685 184.093 20.2151 183.581 20.6668 183.229C21.1213 182.874 21.6668 182.696 22.3032 182.696C22.9395 182.696 23.4836 182.874 23.9353 183.229C24.3898 183.581 24.7364 184.093 24.975 184.763C25.2165 185.431 25.3373 186.236 25.3373 187.179C25.3373 188.128 25.2179 188.938 24.9793 189.608C24.7407 190.276 24.3955 190.786 23.9438 191.138C23.4921 191.488 22.9452 191.662 22.3032 191.662ZM22.3032 190.725C22.9395 190.725 23.4338 190.418 23.7861 189.804C24.1384 189.191 24.3145 188.316 24.3145 187.179C24.3145 186.424 24.2336 185.78 24.0716 185.249C23.9125 184.718 23.6824 184.313 23.3813 184.034C23.083 183.756 22.7236 183.617 22.3032 183.617C21.6725 183.617 21.1796 183.928 20.8245 184.55C20.4694 185.169 20.2918 186.046 20.2918 187.179C20.2918 187.935 20.3713 188.577 20.5304 189.105C20.6895 189.634 20.9182 190.036 21.2165 190.311C21.5177 190.587 21.8799 190.725 22.3032 190.725Z" fill="black"/>
<path d="M117.447 179.546V173.246" stroke="black"/>
<path d="M118.63 182.816V191.543H117.573V183.924H117.522L115.391 185.338V184.265L117.573 182.816H118.63Z" fill="black"/>
<path d="M212.591 179.546V173.246" stroke="black"/>
<path d="M209.862 191.543V190.776L212.742 187.623C213.08 187.253 213.359 186.932 213.578 186.659C213.796 186.384 213.958 186.125 214.063 185.884C214.171 185.64 214.225 185.384 214.225 185.117C214.225 184.81 214.151 184.544 214.004 184.32C213.859 184.096 213.66 183.922 213.407 183.8C213.154 183.678 212.87 183.617 212.555 183.617C212.22 183.617 211.927 183.686 211.677 183.826C211.43 183.962 211.238 184.154 211.102 184.401C210.968 184.648 210.901 184.938 210.901 185.27H209.896C209.896 184.759 210.014 184.31 210.249 183.924C210.485 183.537 210.806 183.236 211.212 183.02C211.622 182.804 212.08 182.696 212.589 182.696C213.1 182.696 213.553 182.804 213.948 183.02C214.343 183.236 214.653 183.527 214.877 183.894C215.102 184.26 215.214 184.668 215.214 185.117C215.214 185.438 215.156 185.752 215.039 186.059C214.926 186.363 214.727 186.702 214.443 187.077C214.161 187.449 213.771 187.904 213.271 188.441L211.31 190.537V190.605H215.367V191.543H209.862Z" fill="black"/>
<path d="M307.735 179.546V173.246" stroke="black"/>
<path d="M307.767 191.662C307.204 191.662 306.703 191.566 306.263 191.373C305.825 191.179 305.477 190.911 305.218 190.567C304.963 190.221 304.824 189.819 304.801 189.361H305.875C305.897 189.642 305.994 189.885 306.164 190.09C306.335 190.292 306.558 190.448 306.834 190.559C307.109 190.669 307.414 190.725 307.75 190.725C308.125 190.725 308.457 190.659 308.747 190.529C309.037 190.398 309.264 190.216 309.429 189.983C309.593 189.75 309.676 189.48 309.676 189.174C309.676 188.853 309.596 188.57 309.437 188.326C309.278 188.078 309.045 187.885 308.738 187.746C308.432 187.607 308.057 187.537 307.613 187.537H306.914V186.6H307.613C307.96 186.6 308.264 186.537 308.525 186.412C308.789 186.287 308.995 186.111 309.143 185.884C309.294 185.657 309.369 185.39 309.369 185.083C309.369 184.787 309.304 184.53 309.173 184.311C309.042 184.093 308.858 183.922 308.619 183.8C308.383 183.678 308.105 183.617 307.784 183.617C307.483 183.617 307.199 183.672 306.932 183.783C306.667 183.891 306.451 184.049 306.284 184.256C306.116 184.461 306.025 184.708 306.011 184.998H304.988C305.005 184.54 305.143 184.14 305.402 183.796C305.66 183.449 305.998 183.179 306.416 182.986C306.836 182.793 307.298 182.696 307.801 182.696C308.341 182.696 308.804 182.806 309.19 183.025C309.576 183.24 309.873 183.526 310.081 183.881C310.288 184.236 310.392 184.62 310.392 185.032C310.392 185.523 310.263 185.942 310.004 186.289C309.748 186.635 309.4 186.875 308.96 187.009V187.077C309.511 187.168 309.941 187.402 310.251 187.78C310.561 188.155 310.716 188.62 310.716 189.174C310.716 189.648 310.586 190.074 310.328 190.452C310.072 190.827 309.723 191.123 309.28 191.338C308.836 191.554 308.332 191.662 307.767 191.662Z" fill="black"/>
<path d="M402.88 179.546V173.246" stroke="black"/>
<path d="M399.729 189.753V188.884L403.564 182.816H404.195V184.162H403.768L400.871 188.748V188.816H406.035V189.753H399.729ZM403.837 191.543V189.489V189.084V182.816H404.842V191.543H403.837Z" fill="black"/>
<path d="M498.022 179.546V173.246" stroke="black"/>
<path d="M498.002 191.662C497.502 191.662 497.052 191.563 496.651 191.364C496.251 191.165 495.93 190.892 495.688 190.546C495.447 190.199 495.315 189.804 495.292 189.361H496.315C496.354 189.756 496.533 190.083 496.852 190.341C497.173 190.597 497.556 190.725 498.002 190.725C498.36 190.725 498.678 190.641 498.957 190.473C499.238 190.306 499.458 190.076 499.617 189.783C499.779 189.488 499.86 189.154 499.86 188.782C499.86 188.401 499.776 188.061 499.609 187.763C499.444 187.462 499.217 187.225 498.927 187.051C498.637 186.878 498.306 186.79 497.934 186.787C497.667 186.784 497.393 186.826 497.112 186.911C496.83 186.993 496.599 187.1 496.417 187.23L495.428 187.111L495.957 182.816H500.491V183.753H496.843L496.536 186.327H496.587C496.766 186.185 496.991 186.067 497.261 185.973C497.531 185.88 497.812 185.833 498.104 185.833C498.639 185.833 499.114 185.961 499.532 186.216C499.952 186.469 500.282 186.816 500.521 187.256C500.762 187.696 500.883 188.199 500.883 188.765C500.883 189.321 500.758 189.819 500.508 190.256C500.261 190.691 499.92 191.034 499.485 191.287C499.051 191.537 498.556 191.662 498.002 191.662Z" fill="black"/>
<path d="M22.3036 5.25012V173.25" stroke="black"/>
<path d="M17.5302 173.254H22.3033" stroke="black"/>
<path d="M9.80253 172.772C9.16048 172.772 8.61361 172.597 8.1619 172.248C7.7102 171.895 7.36503 171.385 7.12639 170.718C6.88775 170.047 6.76844 169.238 6.76844 168.289C6.76844 167.346 6.88775 166.54 7.12639 165.873C7.36787 165.202 7.71446 164.691 8.16616 164.339C8.62071 163.983 9.16616 163.806 9.80253 163.806C10.4389 163.806 10.9829 163.983 11.4346 164.339C11.8892 164.691 12.2358 165.202 12.4744 165.873C12.7159 166.54 12.8366 167.346 12.8366 168.289C12.8366 169.238 12.7173 170.047 12.4787 170.718C12.24 171.385 11.8949 171.895 11.4432 172.248C10.9914 172.597 10.4446 172.772 9.80253 172.772ZM9.80253 171.834C10.4389 171.834 10.9332 171.527 11.2855 170.914C11.6378 170.3 11.8139 169.425 11.8139 168.289C11.8139 167.533 11.7329 166.89 11.571 166.358C11.4119 165.827 11.1818 165.422 10.8807 165.144C10.5824 164.866 10.223 164.726 9.80253 164.726C9.17185 164.726 8.67895 165.037 8.32383 165.66C7.96872 166.279 7.79116 167.155 7.79116 168.289C7.79116 169.045 7.87071 169.687 8.0298 170.215C8.18889 170.743 8.41758 171.145 8.71588 171.421C9.01702 171.696 9.37923 171.834 9.80253 171.834Z" fill="black"/>
<path d="M17.5302 131.25H22.3033" stroke="black"/>
<path d="M7.19031 130.648V129.881L10.071 126.728C10.4091 126.359 10.6875 126.038 10.9062 125.765C11.125 125.489 11.2869 125.231 11.392 124.989C11.5 124.745 11.5539 124.489 11.5539 124.222C11.5539 123.915 11.4801 123.65 11.3324 123.425C11.1875 123.201 10.9886 123.028 10.7358 122.906C10.4829 122.783 10.1988 122.722 9.88349 122.722C9.54827 122.722 9.25565 122.792 9.00565 122.931C8.75849 123.067 8.56673 123.259 8.43037 123.506C8.29685 123.754 8.23008 124.043 8.23008 124.376H7.2244C7.2244 123.864 7.3423 123.415 7.5781 123.029C7.81389 122.643 8.13491 122.342 8.54116 122.126C8.95025 121.91 9.40906 121.802 9.91758 121.802C10.4289 121.802 10.8821 121.91 11.277 122.126C11.6718 122.342 11.9815 122.633 12.2059 122.999C12.4304 123.366 12.5426 123.773 12.5426 124.222C12.5426 124.543 12.4843 124.857 12.3679 125.164C12.2542 125.468 12.0554 125.808 11.7713 126.183C11.49 126.555 11.0994 127.009 10.5994 127.546L8.63917 129.643V129.711H12.696V130.648H7.19031Z" fill="black"/>
<path d="M17.5302 89.254H22.3033" stroke="black"/>
<path d="M6.55217 86.8627V85.9934L10.3874 79.9252H11.0181V81.2718H10.5919L7.69422 85.857V85.9252H12.859V86.8627H6.55217ZM10.6601 88.6525V86.5985V86.1937V79.9252H11.6658V88.6525H10.6601Z" fill="black"/>
<path d="M17.5302 47.254H22.3033" stroke="black"/>
<path d="M9.86538 46.7718C9.50743 46.7661 9.14947 46.6979 8.79152 46.5672C8.43356 46.4366 8.10686 46.2164 7.8114 45.9067C7.51595 45.5942 7.27873 45.1724 7.09976 44.6411C6.92078 44.107 6.83129 43.4366 6.83129 42.6297C6.83129 41.857 6.90373 41.1724 7.04862 40.5758C7.19351 39.9763 7.40373 39.4721 7.6793 39.063C7.95487 38.651 8.28726 38.3385 8.67646 38.1255C9.06851 37.9124 9.51027 37.8059 10.0017 37.8059C10.4904 37.8059 10.925 37.9039 11.3057 38.0999C11.6892 38.2931 12.0017 38.563 12.2432 38.9096C12.4847 39.2562 12.641 39.6553 12.712 40.107H11.6722C11.5756 39.715 11.3881 39.3897 11.1097 39.1312C10.8313 38.8726 10.462 38.7434 10.0017 38.7434C9.32561 38.7434 8.79294 39.0374 8.40373 39.6255C8.01737 40.2135 7.82277 41.0388 7.81993 42.1013H7.88811C8.0472 41.8599 8.23612 41.6539 8.45487 41.4834C8.67646 41.3101 8.92078 41.1766 9.18783 41.0829C9.45487 40.9891 9.73754 40.9422 10.0358 40.9422C10.5358 40.9422 10.9932 41.0672 11.408 41.3172C11.8228 41.5644 12.1552 41.9067 12.4052 42.3442C12.6552 42.7789 12.7802 43.2775 12.7802 43.84C12.7802 44.3797 12.6594 44.8741 12.4179 45.3229C12.1765 45.7689 11.837 46.1241 11.3995 46.3883C10.9648 46.6496 10.4535 46.7775 9.86538 46.7718ZM9.86538 45.8343C10.2233 45.8343 10.5444 45.7448 10.8285 45.5658C11.1154 45.3868 11.3412 45.1468 11.506 44.8456C11.6736 44.5445 11.7574 44.2093 11.7574 43.84C11.7574 43.4792 11.6765 43.151 11.5145 42.8556C11.3554 42.5573 11.1353 42.3201 10.854 42.1439C10.5756 41.9678 10.2574 41.8797 9.89947 41.8797C9.62959 41.8797 9.37817 41.9337 9.14521 42.0417C8.91226 42.1468 8.70771 42.2917 8.53158 42.4763C8.35828 42.661 8.22192 42.8726 8.12248 43.1113C8.02305 43.3471 7.97334 43.5956 7.97334 43.857C7.97334 44.2036 8.0543 44.5275 8.21623 44.8286C8.38101 45.1297 8.60544 45.3726 8.88953 45.5573C9.17646 45.742 9.50175 45.8343 9.86538 45.8343Z" fill="black"/>
<path d="M17.5302 5.25012H22.3033" stroke="black"/>
<path d="M9.85686 9.17803C9.27163 9.17803 8.75459 9.07434 8.30572 8.86695C7.8597 8.65673 7.51169 8.36837 7.26169 8.0019C7.01169 7.63258 6.88811 7.21212 6.89095 6.74053C6.88811 6.37122 6.96055 6.03031 7.10828 5.71781C7.25601 5.40247 7.45771 5.13968 7.71339 4.92945C7.97192 4.71639 8.26027 4.58144 8.57845 4.52462V4.47349C8.16084 4.36553 7.82845 4.13116 7.58129 3.77036C7.33413 3.40673 7.21197 2.99337 7.21481 2.53031C7.21197 2.08712 7.32419 1.69082 7.55146 1.34139C7.77873 0.991954 8.09123 0.716386 8.48896 0.514681C8.88953 0.312977 9.3455 0.212125 9.85686 0.212125C10.3625 0.212125 10.8142 0.312977 11.212 0.514681C11.6097 0.716386 11.9222 0.991954 12.1495 1.34139C12.3796 1.69082 12.4961 2.08712 12.4989 2.53031C12.4961 2.99337 12.3696 3.40673 12.1196 3.77036C11.8725 4.13116 11.5444 4.36553 11.1353 4.47349V4.52462C11.4506 4.58144 11.7347 4.71639 11.9875 4.92945C12.2404 5.13968 12.4421 5.40247 12.5927 5.71781C12.7432 6.03031 12.8199 6.37122 12.8228 6.74053C12.8199 7.21212 12.6921 7.63258 12.4392 8.0019C12.1892 8.36837 11.8412 8.65673 11.3952 8.86695C10.952 9.07434 10.4392 9.17803 9.85686 9.17803ZM9.85686 8.24053C10.2517 8.24053 10.5927 8.17661 10.8796 8.04877C11.1665 7.92093 11.3881 7.74053 11.5444 7.50758C11.7006 7.27462 11.7802 7.0019 11.783 6.6894C11.7802 6.35985 11.6949 6.06866 11.5273 5.81582C11.3597 5.56298 11.131 5.36411 10.8412 5.21923C10.5543 5.07434 10.2262 5.0019 9.85686 5.0019C9.4847 5.0019 9.15231 5.07434 8.8597 5.21923C8.56993 5.36411 8.34123 5.56298 8.17362 5.81582C8.00885 6.06866 7.92788 6.35985 7.93072 6.6894C7.92788 7.0019 8.00317 7.27462 8.15658 7.50758C8.31283 7.74053 8.53584 7.92093 8.82561 8.04877C9.11538 8.17661 9.45913 8.24053 9.85686 8.24053ZM9.85686 4.09849C10.1694 4.09849 10.4463 4.03599 10.6878 3.91099C10.9321 3.78599 11.1239 3.61127 11.2631 3.38684C11.4023 3.16241 11.4733 2.89962 11.4762 2.59849C11.4733 2.30303 11.4037 2.04593 11.2674 1.82718C11.131 1.60559 10.9421 1.43514 10.7006 1.31582C10.4591 1.19366 10.1779 1.13258 9.85686 1.13258C9.53015 1.13258 9.24464 1.19366 9.00033 1.31582C8.75601 1.43514 8.56709 1.60559 8.43356 1.82718C8.30004 2.04593 8.2347 2.30303 8.23754 2.59849C8.2347 2.89962 8.30146 3.16241 8.43783 3.38684C8.57703 3.61127 8.76879 3.78599 9.01311 3.91099C9.25743 4.03599 9.53868 4.09849 9.85686 4.09849Z" fill="black"/>
<path d="M22.3027 173.254H498.022" stroke="#CCCCCC"/>
<path d="M22.3027 131.25H498.022" stroke="#CCCCCC"/>
<path d="M22.3027 89.25H498.022" stroke="#CCCCCC"/>
<path d="M22.3027 47.2461H498.022" stroke="#CCCCCC"/>
<path d="M22.3027 5.25H498.022" stroke="#CCCCCC"/>
<path d="M22.3027 5.25V173.25" stroke="#CCCCCC"/>
<path d="M117.447 5.25V173.25" stroke="#CCCCCC"/>
<path d="M212.591 5.25V173.25" stroke="#CCCCCC"/>
<path d="M307.734 5.25V173.25" stroke="#CCCCCC"/>
<path d="M402.879 5.25V173.25" stroke="#CCCCCC"/>
<path d="M498.021 5.25V173.25" stroke="#CCCCCC"/>
<path d="M22.3027 26.25L117.447 89.25L212.591 131.25L307.734 152.25L402.878 26.25L498.022 89.25" stroke="#71589F"/>
<path d="M22.3026 29.3977C23.6206 29.3977 24.6891 27.9874 24.6891 26.2477C24.6891 24.508 23.6206 23.0977 22.3026 23.0977C20.9845 23.0977 19.916 24.508 19.916 26.2477C19.916 27.9874 20.9845 29.3977 22.3026 29.3977Z" fill="white" stroke="#71589F"/>
<path d="M117.446 92.4016C118.764 92.4016 119.833 90.9913 119.833 89.2516C119.833 87.5119 118.764 86.1016 117.446 86.1016C116.128 86.1016 115.06 87.5119 115.06 89.2516C115.06 90.9913 116.128 92.4016 117.446 92.4016Z" fill="white" stroke="#71589F"/>
<path d="M212.59 134.398C213.908 134.398 214.977 132.987 214.977 131.248C214.977 129.508 213.908 128.098 212.59 128.098C211.272 128.098 210.204 129.508 210.204 131.248C210.204 132.987 211.272 134.398 212.59 134.398Z" fill="white" stroke="#71589F"/>
<path d="M307.734 155.398C309.052 155.398 310.121 153.987 310.121 152.248C310.121 150.508 309.052 149.098 307.734 149.098C306.416 149.098 305.348 150.508 305.348 152.248C305.348 153.987 306.416 155.398 307.734 155.398Z" fill="white" stroke="#71589F"/>
<path d="M402.879 29.3977C404.197 29.3977 405.265 27.9874 405.265 26.2477C405.265 24.508 404.197 23.0977 402.879 23.0977C401.561 23.0977 400.492 24.508 400.492 26.2477C400.492 27.9874 401.561 29.3977 402.879 29.3977Z" fill="white" stroke="#71589F"/>
<path d="M498.021 92.4016C499.339 92.4016 500.408 90.9913 500.408 89.2516C500.408 87.5119 499.339 86.1016 498.021 86.1016C496.703 86.1016 495.635 87.5119 495.635 89.2516C495.635 90.9913 496.703 92.4016 498.021 92.4016Z" fill="white" stroke="#71589F"/>
<path d="M22.3027 68.25L117.447 26.25H212.591L307.734 110.25L402.878 47.25L498.022 89.25" stroke="#9A8053"/>
<path d="M22.3026 71.3937C23.6206 71.3937 24.6891 69.9834 24.6891 68.2437C24.6891 66.5041 23.6206 65.0938 22.3026 65.0938C20.9845 65.0938 19.916 66.5041 19.916 68.2437C19.916 69.9834 20.9845 71.3937 22.3026 71.3937Z" fill="white" stroke="#9A8053"/>
<path d="M117.446 29.3977C118.764 29.3977 119.833 27.9874 119.833 26.2477C119.833 24.508 118.764 23.0977 117.446 23.0977C116.128 23.0977 115.059 24.508 115.059 26.2477C115.059 27.9874 116.128 29.3977 117.446 29.3977Z" fill="white" stroke="#9A8053"/>
<path d="M212.59 29.3977C213.908 29.3977 214.977 27.9874 214.977 26.2477C214.977 24.508 213.908 23.0977 212.59 23.0977C211.272 23.0977 210.204 24.508 210.204 26.2477C210.204 27.9874 211.272 29.3977 212.59 29.3977Z" fill="white" stroke="#9A8053"/>
<path d="M307.734 113.398C309.052 113.398 310.121 111.987 310.121 110.248C310.121 108.508 309.052 107.098 307.734 107.098C306.416 107.098 305.348 108.508 305.348 110.248C305.348 111.987 306.416 113.398 307.734 113.398Z" fill="white" stroke="#9A8053"/>
<path d="M402.879 50.3977C404.197 50.3977 405.265 48.9874 405.265 47.2477C405.265 45.508 404.197 44.0977 402.879 44.0977C401.561 44.0977 400.492 45.508 400.492 47.2477C400.492 48.9874 401.561 50.3977 402.879 50.3977Z" fill="white" stroke="#9A8053"/>
<path d="M498.021 92.4016C499.339 92.4016 500.408 90.9913 500.408 89.2516C500.408 87.5119 499.339 86.1016 498.021 86.1016C496.703 86.1016 495.635 87.5119 495.635 89.2516C495.635 90.9913 496.703 92.4016 498.021 92.4016Z" fill="white" stroke="#9A8053"/>
<path d="M498.021 131.25L402.878 47.25L307.734 68.25L212.59 26.25L117.446 110.25L22.3019 26.25" stroke="#E0712F"/>
<path d="M498.022 134.398C496.704 134.398 495.635 132.987 495.635 131.248C495.635 129.508 496.704 128.098 498.022 128.098C499.34 128.098 500.408 129.508 500.408 131.248C500.408 132.987 499.34 134.398 498.022 134.398Z" fill="white" stroke="#E0712F"/>
<path d="M402.878 50.3977C401.56 50.3977 400.492 48.9874 400.492 47.2477C400.492 45.508 401.56 44.0977 402.878 44.0977C404.196 44.0977 405.265 45.508 405.265 47.2477C405.265 48.9874 404.196 50.3977 402.878 50.3977Z" fill="white" stroke="#E0712F"/>
<path d="M307.734 71.3937C306.416 71.3937 305.347 69.9834 305.347 68.2437C305.347 66.5041 306.416 65.0938 307.734 65.0938C309.052 65.0938 310.12 66.5041 310.12 68.2437C310.12 69.9834 309.052 71.3937 307.734 71.3937Z" fill="white" stroke="#E0712F"/>
<path d="M212.59 29.3977C211.272 29.3977 210.203 27.9874 210.203 26.2477C210.203 24.508 211.272 23.0977 212.59 23.0977C213.908 23.0977 214.977 24.508 214.977 26.2477C214.977 27.9874 213.908 29.3977 212.59 29.3977Z" fill="white" stroke="#E0712F"/>
<path d="M117.445 113.398C116.127 113.398 115.059 111.987 115.059 110.248C115.059 108.508 116.127 107.098 117.445 107.098C118.764 107.098 119.832 108.508 119.832 110.248C119.832 111.987 118.764 113.398 117.445 113.398Z" fill="white" stroke="#E0712F"/>
<path d="M22.3029 29.3977C20.9848 29.3977 19.9163 27.9874 19.9163 26.2477C19.9163 24.508 20.9848 23.0977 22.3029 23.0977C23.621 23.0977 24.6895 24.508 24.6895 26.2477C24.6895 27.9874 23.621 29.3977 22.3029 29.3977Z" fill="white" stroke="#E0712F"/>
</g>
<defs>
<clipPath id="clip0_7_8172">
<rect width="502" height="210" fill="white"/>
</clipPath>
</defs>
</svg>
