<svg width="24" height="24" viewBox="0 0 24 24" fill="none" xmlns="http://www.w3.org/2000/svg">
<path d="M15.7504 11.25V6.375C15.7504 5.87772 15.948 5.40081 16.2996 5.04917C16.6513 4.69754 17.1282 4.5 17.6254 4.5C18.1227 4.5 18.5996 4.69754 18.9513 5.04917C19.3029 5.40081 19.5004 5.87772 19.5004 6.375V14.25C19.5004 15.2349 19.3065 16.2102 18.9295 17.1201C18.5526 18.0301 18.0002 18.8569 17.3037 19.5533C16.6073 20.2497 15.7805 20.8022 14.8706 21.1791C13.9606 21.556 12.9854 21.75 12.0004 21.75C7.8567 21.75 6.00045 19.5 2.9442 13.0594C2.69556 12.628 2.62847 12.1155 2.75769 11.6346C2.88692 11.1538 3.20187 10.744 3.63326 10.4953C4.06465 10.2467 4.57714 10.1796 5.058 10.3088C5.53885 10.438 5.94868 10.753 6.19732 11.1844L8.25045 14.7469V4.875C8.25045 4.37772 8.44799 3.90081 8.79962 3.54917C9.15125 3.19754 9.62817 3 10.1254 3C10.6227 3 11.0996 3.19754 11.4513 3.54917C11.8029 3.90081 12.0004 4.37772 12.0004 4.875V11.25" stroke="#5A5A5F" stroke-width="2" stroke-linecap="round" stroke-linejoin="round"/>
<path d="M15.75 6.375V3.375C15.75 2.87772 15.5525 2.40081 15.2008 2.04917C14.8492 1.69754 14.3723 1.5 13.875 1.5C13.3777 1.5 12.9008 1.69754 12.5492 2.04917C12.1975 2.40081 12 2.87772 12 3.375V4.875" stroke="#5A5A5F" stroke-width="2" stroke-linecap="round" stroke-linejoin="round"/>
</svg>
